Coordinates
version=1
nRows=38
nColumns=12
inDegrees=yes

Units are S.I. units (second, meters, Newtons, ...)
Angles are in degrees

endheader
time	SC_y	SC_z	SC_x	AC_y	AC_z	AC_x	GH_y	GH_z	GH_yy	EL_x	PS_y
       0.0              -18.79          3.476          45.03          45.27         -16.38         -11.44         -161.7          74.29          123.0          113.3          30.27
   0.02949              -18.79          3.475          45.03          45.27         -16.38         -11.44         -161.7          74.28          122.9          113.2          30.29
   0.05898               -18.8          3.474          45.04          45.27         -16.38         -11.44         -161.7          74.27          122.9          113.2          30.31
   0.08847               -18.8          3.473          45.04          45.27         -16.37         -11.43         -161.7          74.27          122.9          113.2          30.33
     0.118               -18.8          3.471          45.05          45.27         -16.37         -11.43         -161.7          74.25          122.8          113.2          30.35
    0.1475              -18.81           3.47          45.06          45.27         -16.37         -11.43         -161.7          74.24          122.8          113.2          30.37
    0.1769              -18.81          3.468          45.06          45.27         -16.36         -11.43         -161.7          74.23          122.7          113.2          30.39
    0.2064              -18.81          3.466          45.07          45.27         -16.36         -11.43         -161.6          74.22          122.7          113.1          30.41
    0.2359              -18.82          3.464          45.08          45.27         -16.36         -11.42         -161.6          74.21          122.6          113.1          30.44
    0.2654              -18.82          3.462          45.09          45.27         -16.35         -11.42         -161.6          74.19          122.5          113.1          30.47
    0.2949              -18.82           3.46           45.1          45.27         -16.35         -11.42         -161.6          74.18          122.5          113.1          30.49
    0.3244              -18.83          3.458          45.11          45.27         -16.34         -11.41         -161.6          74.16          122.4          113.0          30.53
    0.3539              -18.83          3.455          45.12          45.27         -16.33         -11.41         -161.5          74.14          122.3          113.0          30.56
    0.3834              -18.84          3.452          45.13          45.27         -16.33         -11.41         -161.5          74.12          122.2          113.0           30.6
    0.4129              -18.85          3.449          45.15          45.27         -16.32          -11.4         -161.5           74.1          122.2          112.9          30.64
    0.4424              -18.85          3.446          45.16          45.27         -16.31          -11.4         -161.4          74.08          122.1          112.9          30.68
    0.4719              -18.86          3.443          45.18          45.27         -16.31         -11.39         -161.4          74.06          122.0          112.8          30.73
    0.5013              -18.87          3.439          45.19          45.27          -16.3         -11.39         -161.4          74.03          121.8          112.8          30.78
    0.5308              -18.88          3.435          45.21          45.27         -16.29         -11.38         -161.3           74.0          121.7          112.8          30.83
    0.5603              -18.89           3.43          45.23          45.26         -16.28         -11.37         -161.3          73.97          121.6          112.7          30.89
    0.5898               -18.9          3.425          45.25          45.26         -16.27         -11.37         -161.2          73.93          121.4          112.6          30.96
    0.6193              -18.91          3.419          45.28          45.26         -16.25         -11.36         -161.2          73.89          121.2          112.6          31.04
    0.6488              -18.92          3.413          45.31          45.26         -16.24         -11.35         -161.1          73.85          121.1          112.5          31.12
    0.6783              -18.93          3.407          45.34          45.26         -16.22         -11.34         -161.1          73.81          120.9          112.4          31.21
    0.7078              -18.95          3.399          45.37          45.26         -16.21         -11.33         -161.0          73.75          120.6          112.3          31.31
    0.7373              -18.97          3.391          45.41          45.26         -16.19         -11.32         -160.9          73.69          120.4          112.2          31.42
    0.7668              -18.98          3.381          45.45          45.26         -16.17         -11.31         -160.8          73.63          120.1          112.1          31.55
    0.7962              -19.01          3.371          45.49          45.26         -16.14         -11.29         -160.7          73.56          119.8          112.0          31.69
    0.8257              -19.03          3.359          45.55          45.25         -16.12         -11.28         -160.6          73.47          119.4          111.8          31.85
    0.8552              -19.06          3.345          45.61          45.25         -16.08         -11.26         -160.5          73.38          119.0          111.7          32.03
    0.8847              -19.09           3.33          45.68          45.25         -16.05         -11.23         -160.3          73.27          118.5          111.5          32.23
    0.9142              -19.12          3.312          45.76          45.25         -16.01         -11.21         -160.1          73.15          118.0          111.3          32.47
    0.9437              -19.17          3.292          45.85          45.24         -15.96         -11.18         -159.9           73.0          117.3          111.0          32.75
    0.9732              -19.21          3.268          45.95          45.24         -15.91         -11.15         -159.7          72.84          116.6          110.7          33.06
     1.003              -19.27           3.24          46.08          45.24         -15.84         -11.11         -159.4          72.64          115.8          110.4          33.44
     1.032              -19.34          3.207          46.22          45.23         -15.77         -11.06         -159.1          72.41          114.8          110.0          33.88
     1.062              -19.42          3.168          46.39          45.23         -15.68         -11.01         -158.8          72.14          113.6          109.5           34.4
     1.091              -19.51          3.121           46.6          45.22         -15.57         -10.94         -158.3          71.81          112.1          109.0          35.02
